# xmcd CD database file
#
# Track frame offsets:
#	150
#	12126
#	26500
#	39730
#	54702
#	70632
#	84397
#	97404
#	111753
#	138538
#	154816
#	168892
#	180950
#	195293
#	207003
#	219326
#
# Disc length: 3126 seconds
#
# Revision: 0
# Processed by: cddbd v1.5.2PL0 Copyright (c) Steve Scherf et al.
# Submitted via: CDex 1.79
#
DISCID=ce0c3410
DTITLE=Duke Ellington - Ultimate collection
DYEAR=2015
DGENRE=Jazz
TTITLE0=Take it easy
TTITLE1=Cotton tail
TTITLE2=Clementine
TTITLE3=I got it bad and that ain't good
TTITLE4=All too soon
TTITLE5=Jungle nights in Harlem
TTITLE6=Mood indigo
TTITLE7=Perdido
TTITLE8=Rockin' in the rhythm
TTITLE9=Just a-sittin' and a-rockin'
TTITLE10=Moonlight fiesta
TTITLE11=C-jam blues
TTITLE12=Dusk on the desert
TTITLE13=Blue skies
TTITLE14=Saratoga swing
TTITLE15=Jack the bear
EXTD=YEAR: 2015
EXTT0=
EXTT1=
EXTT2=
EXTT3=
EXTT4=
EXTT5=
EXTT6=
EXTT7=
EXTT8=
EXTT9=
EXTT10=
EXTT11=
EXTT12=
EXTT13=
EXTT14=
EXTT15=
PLAYORDER=
